<svg width="12" height="12" viewBox="0 0 12 12" fill="none" xmlns="http://www.w3.org/2000/svg">
<path d="M0.105469 0.0299683C0.028125 0.074501 0 0.12893 0 0.235315C0 0.309537 0.0140625 0.351596 0.0515625 0.391181C0.103125 0.440662 0.13125 0.443136 0.855469 0.450559C1.49297 0.460455 1.62188 0.467877 1.71094 0.502514C1.95234 0.601477 2.14688 0.821668 2.21484 1.0765C2.23359 1.1433 2.47031 2.68711 2.74219 4.50307C3.01406 6.31904 3.24844 7.84553 3.2625 7.89254C3.38203 8.30076 3.70078 8.63723 4.08984 8.76588L4.25391 8.82031H7.42031C10.5563 8.82031 10.5891 8.82031 10.6406 8.77083C10.6688 8.74362 10.7016 8.69414 10.7133 8.66197C10.7438 8.5828 10.6992 8.44673 10.6336 8.40467C10.5938 8.3824 9.87656 8.37251 7.40625 8.36261L4.23047 8.35024L4.10156 8.27849C3.93281 8.18695 3.76406 7.99645 3.70547 7.83316C3.67266 7.73667 3.49219 6.67777 3.49219 6.57386C3.49219 6.56397 4.93359 6.55407 6.69844 6.5516L9.90234 6.54417L10.0758 6.47738C10.3664 6.36604 10.6008 6.16564 10.7461 5.90339C10.8328 5.74753 12 2.1923 12 2.08344C12 1.98695 11.9695 1.92015 11.9133 1.89046C11.8898 1.87809 9.825 1.86325 7.32656 1.85583L2.77969 1.84346L2.72578 1.48472C2.69766 1.28679 2.6625 1.07155 2.64844 1.00475C2.55469 0.547047 2.16094 0.136353 1.71797 0.0373907C1.51875 -0.00714302 0.180469 -0.0145655 0.105469 0.0299683ZM11.4844 2.32095C11.4844 2.36301 10.432 5.54218 10.3852 5.63619C10.3125 5.78464 10.1648 5.93308 10.0102 6.00978L9.87891 6.0741L6.65156 6.08153L3.42188 6.08647L3.41016 6.03204C3.39141 5.94545 2.85938 2.37785 2.85938 2.33579C2.85938 2.30611 3.45938 2.30116 7.17188 2.30116C9.54375 2.30116 11.4844 2.30858 11.4844 2.32095Z" fill="#181818"/>
<path d="M4.42258 9.61253C3.85774 9.77582 3.48743 10.377 3.58352 10.9782C3.68196 11.5844 4.14368 12 4.72024 12C5.05305 12 5.31321 11.8887 5.54524 11.6437C6.16633 10.9881 5.87571 9.84757 5.02727 9.61253C4.86086 9.568 4.57727 9.568 4.42258 9.61253ZM5.03664 10.1073C5.29446 10.2434 5.44211 10.4908 5.44211 10.7902C5.44446 10.9411 5.43274 10.9856 5.36477 11.1291C5.02961 11.8219 4.05461 11.6091 4.01243 10.8322C4.00071 10.6121 4.05227 10.4537 4.18821 10.2929C4.41555 10.0257 4.74836 9.95148 5.03664 10.1073Z" fill="#181818"/>
<path d="M8.65106 9.61483C8.45887 9.66926 8.2995 9.76822 8.14012 9.93646C7.52372 10.5921 7.79794 11.693 8.64637 11.9602C8.82684 12.0171 9.12215 12.0122 9.312 11.9503C9.49247 11.891 9.71512 11.74 9.83465 11.5966C9.95419 11.4506 10.0714 11.1784 10.1018 10.9756C10.1909 10.3694 9.82294 9.76575 9.26747 9.61483C9.08934 9.56535 8.81981 9.56535 8.65106 9.61483ZM9.2534 10.0948C9.41278 10.1665 9.5909 10.3719 9.64481 10.5426C9.69872 10.7108 9.68465 10.9582 9.61434 11.1116C9.50419 11.3516 9.26981 11.5248 9.02137 11.5471C8.487 11.599 8.07919 11.0003 8.30184 10.4882C8.39559 10.2705 8.58544 10.1022 8.80106 10.0428C8.91356 10.0107 9.12215 10.0354 9.2534 10.0948Z" fill="#181818"/>
</svg>
