<svg width="24" height="24" viewBox="0 0 24 24" fill="none" xmlns="http://www.w3.org/2000/svg">
<path d="M0.210938 0.0576916C0.05625 0.143335 0 0.248013 0 0.452606C0 0.595346 0.028125 0.676233 0.103125 0.752361C0.20625 0.847521 0.2625 0.85228 1.71094 0.866552C2.98594 0.885586 3.24375 0.899858 3.42188 0.966472C3.90469 1.15679 4.29375 1.58025 4.42969 2.07033C4.46719 2.1988 4.94063 5.16779 5.48438 8.66017C6.02813 12.1525 6.49688 15.0882 6.525 15.1786C6.76406 15.9637 7.40156 16.6108 8.17969 16.8582L8.50781 16.9629H14.8406C21.1125 16.9629 21.1781 16.9629 21.2812 16.8677C21.3375 16.8154 21.4031 16.7202 21.4266 16.6584C21.4875 16.5061 21.3984 16.2444 21.2672 16.1635C21.1875 16.1207 19.7531 16.1017 14.8125 16.0827L8.46094 16.0589L8.20312 15.9209C7.86563 15.7448 7.52813 15.3785 7.41094 15.0644C7.34531 14.8789 6.98438 12.8425 6.98438 12.6426C6.98438 12.6236 9.86719 12.6046 13.3969 12.5998L19.8047 12.5855L20.1516 12.4571C20.7328 12.2429 21.2016 11.8575 21.4922 11.3532C21.6656 11.0534 24 4.21619 24 4.00684C24 3.82128 23.9391 3.69281 23.8266 3.63571C23.7797 3.61192 19.65 3.58337 14.6531 3.5691L5.55938 3.54531L5.45156 2.8554C5.39531 2.47476 5.325 2.06081 5.29688 1.93235C5.10938 1.05212 4.32188 0.262287 3.43594 0.0719662C3.0375 -0.0136776 0.360938 -0.0279522 0.210938 0.0576916ZM22.9688 4.46361C22.9688 4.54449 20.8641 10.6585 20.7703 10.8393C20.625 11.1248 20.3297 11.4103 20.0203 11.5578L19.7578 11.6815L13.3031 11.6958L6.84375 11.7053L6.82031 11.6006C6.78281 11.4341 5.71875 4.57304 5.71875 4.49215C5.71875 4.43506 6.91875 4.42554 14.3438 4.42554C19.0875 4.42554 22.9688 4.43982 22.9688 4.46361Z" fill="#181818"/>
<path d="M8.84516 18.4866C7.71548 18.8007 6.97485 19.9569 7.16704 21.1131C7.36391 22.2788 8.28735 23.0781 9.44048 23.0781C10.1061 23.0781 10.6264 22.864 11.0905 22.393C12.3327 21.1321 11.7514 18.9387 10.0545 18.4866C9.72173 18.401 9.15454 18.401 8.84516 18.4866ZM10.0733 19.4383C10.5889 19.6999 10.8842 20.1757 10.8842 20.7515C10.8889 21.0417 10.8655 21.1273 10.7295 21.4033C10.0592 22.7355 8.10923 22.3264 8.02485 20.8323C8.00141 20.4089 8.10454 20.1044 8.37641 19.7951C8.8311 19.2812 9.49673 19.1385 10.0733 19.4383Z" fill="#181818"/>
<path d="M17.3021 18.4911C16.9177 18.5957 16.599 18.7861 16.2802 19.1096C15.0474 20.3705 15.5959 22.4878 17.2927 23.0017C17.6537 23.1111 18.2443 23.1016 18.624 22.9826C18.9849 22.8684 19.4302 22.5782 19.6693 22.3022C19.9084 22.0215 20.1427 21.4981 20.2037 21.108C20.3818 19.9423 19.6459 18.7813 18.5349 18.4911C18.1787 18.3959 17.6396 18.3959 17.3021 18.4911ZM18.5068 19.4141C18.8256 19.5521 19.1818 19.947 19.2896 20.2753C19.3974 20.5989 19.3693 21.0747 19.2287 21.3697C19.0084 21.8312 18.5396 22.1643 18.0427 22.2071C16.974 22.307 16.1584 21.1556 16.6037 20.1706C16.7912 19.7519 17.1709 19.4284 17.6021 19.3142C17.8271 19.2524 18.2443 19.2999 18.5068 19.4141Z" fill="#181818"/>
</svg>
